ffmpeg started on 2016-11-29 at 14:37:11
Report written to "Output/x264/results/ffmpeg/old_town_cross_2160p50veryfast2000k.log"
Command line:
Tools/ffmpeg/ffmpeg -benchmark -y -i Input/y4m/old_town_cross_2160p50.y4m -c:v libx264 -preset veryfast -b:v 2000k -an Output/x264/encoded/old_town_cross_2160p50veryfast2000k.mkv
ffmpeg version N-82227-gdb23fde Copyright (c) 2000-2016 the FFmpeg developers
  built with gcc 5.4.0 (Ubuntu 5.4.0-6ubuntu1~16.04.2) 20160609
  configuration: --prefix=/home/jaroslav/ffmpeg_build --pkg-config-flags=--static --extra-cflags=-I/home/jaroslav/ffmpeg_build/include --extra-ldflags=-L/home/jaroslav/ffmpeg_build/lib --bindir=/home/jaroslav/bin --enable-gpl --enable-libass --enable-libfdk-aac --enable-libfreetype --enable-libmp3lame --enable-libopus --enable-libtheora --enable-libvorbis --enable-libvpx --enable-libx264 --enable-libx265 --enable-nvenc --enable-libmfx --enable-libxvid --enable-libgsm --enable-libopencore-amrnb --enable-version3 --enable-nonfree
  libavutil      55. 35.100 / 55. 35.100
  libavcodec     57. 66.101 / 57. 66.101
  libavformat    57. 57.100 / 57. 57.100
  libavdevice    57.  2.100 / 57.  2.100
  libavfilter     6. 66.100 /  6. 66.100
  libswscale      4.  3.100 /  4.  3.100
  libswresample   2.  4.100 /  2.  4.100
  libpostproc    54.  2.100 / 54.  2.100
Input #0, yuv4mpegpipe, from 'Input/y4m/old_town_cross_2160p50.y4m':
  Duration: 00:00:10.00, start: 0.000000, bitrate: 4976642 kb/s
    Stream #0:0: Video: rawvideo (I420 / 0x30323449), yuv420p(progressive), 3840x2160, SAR 1:1 DAR 16:9, 50 fps, 50 tbr, 50 tbn, 50 tbc
[libx264 @ 0x4631120] using SAR=1/1
[libx264 @ 0x4631120] using cpu capabilities: MMX2 SSE2Fast SSSE3 SSE4.2 AVX FMA3 AVX2 LZCNT BMI2
[libx264 @ 0x4631120] profile High, level 5.2
[libx264 @ 0x4631120] 264 - core 148 - H.264/MPEG-4 AVC codec - Copyleft 2003-2016 - http://www.videolan.org/x264.html - options: cabac=1 ref=1 deblock=1:0:0 analyse=0x3:0x113 me=hex subme=2 psy=1 psy_rd=1.00:0.00 mixed_ref=0 me_range=16 chroma_me=1 trellis=0 8x8dct=1 cqm=0 deadzone=21,11 fast_pskip=1 chroma_qp_offset=0 threads=6 lookahead_threads=2 sliced_threads=0 nr=0 decimate=1 interlaced=0 bluray_compat=0 constrained_intra=0 bframes=3 b_pyramid=2 b_adapt=1 b_bias=0 direct=1 weightb=1 open_gop=0 weightp=1 keyint=250 keyint_min=25 scenecut=40 intra_refresh=0 rc_lookahead=10 rc=abr mbtree=1 bitrate=2000 ratetol=1.0 qcomp=0.60 qpmin=0 qpmax=69 qpstep=4 ip_ratio=1.40 aq=1:1.00
Output #0, matroska, to 'Output/x264/encoded/old_town_cross_2160p50veryfast2000k.mkv':
  Metadata:
    encoder         : Lavf57.57.100
    Stream #0:0: Video: h264 (libx264) (H264 / 0x34363248), yuv420p, 3840x2160 [SAR 1:1 DAR 16:9], q=-1--1, 2000 kb/s, 50 fps, 1k tbn, 50 tbc
    Metadata:
      encoder         : Lavc57.66.101 libx264
    Side data:
      cpb: bitrate max/min/avg: 0/0/2000000 buffer size: 0 vbv_delay: -1
Stream mapping:
  Stream #0:0 -> #0:0 (rawvideo (native) -> h264 (libx264))
Press [q] to stop, [?] for help
frame=   22 fps=0.0 q=48.0 size=       1kB time=-00:00:00.01 bitrate=N/A speed=N/A    frame=   38 fps= 35 q=47.0 size=       1kB time=00:00:00.30 bitrate=  19.5kbits/s speed=0.277x    frame=   54 fps= 33 q=45.0 size=       1kB time=00:00:00.62 bitrate=   9.4kbits/s speed=0.38x    frame=   70 fps= 32 q=44.0 size=       1kB time=00:00:00.94 bitrate=   6.2kbits/s speed=0.432x    frame=   86 fps= 31 q=43.0 size=       1kB time=00:00:01.26 bitrate=   4.7kbits/s speed=0.461x    frame=  102 fps= 31 q=43.0 size=       1kB time=00:00:01.58 bitrate=   3.7kbits/s speed=0.482x    frame=  118 fps= 31 q=42.0 size=       1kB time=00:00:01.90 bitrate=   3.1kbits/s speed= 0.5x    frame=  134 fps= 31 q=42.0 size=       1kB time=00:00:02.22 bitrate=   2.6kbits/s speed=0.513x    frame=  150 fps= 31 q=42.0 size=       1kB time=00:00:02.54 bitrate=   2.3kbits/s speed=0.523x    frame=  166 fps= 31 q=42.0 size=       1kB time=00:00:02.86 bitrate=   2.0kbits/s speed=0.53x    frame=  182 fps= 31 q=41.0 size=       1kB time=00:00:03.18 bitrate=   1.8kbits/s speed=0.536x    frame=  198 fps= 31 q=41.0 size=       1kB time=00:00:03.50 bitrate=   1.7kbits/s speed=0.542x    frame=  214 fps= 31 q=41.0 size=       1kB time=00:00:03.82 bitrate=   1.5kbits/s speed=0.547x    frame=  230 fps= 30 q=41.0 size=       1kB time=00:00:04.14 bitrate=   1.4kbits/s speed=0.549x    frame=  236 fps= 29 q=42.0 size=       1kB time=00:00:04.26 bitrate=   1.4kbits/s speed=0.527x    frame=  244 fps= 28 q=42.0 size=       1kB time=00:00:04.42 bitrate=   1.3kbits/s speed=0.514x    frame=  252 fps= 28 q=42.0 size=       1kB time=00:00:04.58 bitrate=   1.3kbits/s speed=0.503x    frame=  260 fps= 27 q=42.0 size=       1kB time=00:00:04.74 bitrate=   1.2kbits/s speed=0.493x    frame=  271 fps= 27 q=43.0 size=    1123kB time=00:00:04.96 bitrate=1853.6kbits/s speed=0.489x    frame=  287 fps= 27 q=43.0 size=    1123kB time=00:00:05.28 bitrate=1741.2kbits/s speed=0.495x    frame=  303 fps= 27 q=42.0 size=    1123kB time=00:00:05.60 bitrate=1641.8kbits/s speed=0.499x    frame=  319 fps= 27 q=42.0 size=    1123kB time=00:00:05.92 bitrate=1553.0kbits/s speed=0.503x    frame=  335 fps= 27 q=42.0 size=    1123kB time=00:00:06.24 bitrate=1473.4kbits/s speed=0.507x    frame=  351 fps= 27 q=42.0 size=    1123kB time=00:00:06.56 bitrate=1401.5kbits/s speed=0.511x    frame=  367 fps= 27 q=42.0 size=    1123kB time=00:00:06.88 bitrate=1336.4kbits/s speed=0.515x    frame=  383 fps= 28 q=42.0 size=    1123kB time=00:00:07.20 bitrate=1277.0kbits/s speed=0.518x    frame=  399 fps= 28 q=42.0 size=    1123kB time=00:00:07.52 bitrate=1222.6kbits/s speed=0.521x    frame=  415 fps= 28 q=42.0 size=    1123kB time=00:00:07.84 bitrate=1172.7kbits/s speed=0.524x    frame=  431 fps= 28 q=42.0 size=    1123kB time=00:00:08.16 bitrate=1126.8kbits/s speed=0.527x    frame=  447 fps= 28 q=42.0 size=    1123kB time=00:00:08.48 bitrate=1084.3kbits/s speed=0.529x    frame=  463 fps= 28 q=42.0 size=    1123kB time=00:00:08.80 bitrate=1044.8kbits/s speed=0.531x    frame=  474 fps= 28 q=42.0 size=    1123kB time=00:00:09.02 bitrate=1019.3kbits/s speed=0.526x    frame=  481 fps= 27 q=43.0 size=    1123kB time=00:00:09.16 bitrate=1003.8kbits/s speed=0.519x    frame=  489 fps= 27 q=43.0 size=    1123kB time=00:00:09.32 bitrate= 986.5kbits/s speed=0.513x    frame=  497 fps= 27 q=43.0 size=    1123kB time=00:00:09.48 bitrate= 969.9kbits/s speed=0.508x    frame=  500 fps= 26 q=-1.0 Lsize=    2519kB time=00:00:09.94 bitrate=2075.5kbits/s speed=0.512x    
video:2514kB audio:0kB subtitle:0kB other streams:0kB global headers:0kB muxing overhead: 0.169453%
bench: utime=55.220s
bench: maxrss=1084500kB
[libx264 @ 0x4631120] frame I:3     Avg QP:39.94  size: 69858
[libx264 @ 0x4631120] frame P:183   Avg QP:40.67  size:  8942
[libx264 @ 0x4631120] frame B:314   Avg QP:42.44  size:  2319
[libx264 @ 0x4631120] consecutive B-frames: 16.0%  0.8%  0.0% 83.2%
[libx264 @ 0x4631120] mb I  I16..4: 50.1% 49.3%  0.5%
[libx264 @ 0x4631120] mb P  I16..4:  1.7%  1.3%  0.0%  P16..4:  7.6%  1.4%  0.2%  0.0%  0.0%    skip:87.7%
[libx264 @ 0x4631120] mb B  I16..4:  0.1%  0.0%  0.0%  B16..8:  3.1%  0.2%  0.0%  direct: 0.4%  skip:96.2%  L0:37.2% L1:62.5% BI: 0.3%
[libx264 @ 0x4631120] final ratefactor: 34.90
[libx264 @ 0x4631120] 8x8 transform intra:43.7% inter:58.1%
[libx264 @ 0x4631120] coded y,uvDC,uvAC intra: 15.3% 17.3% 1.5% inter: 0.1% 0.5% 0.0%
[libx264 @ 0x4631120] i16 v,h,dc,p: 47% 41%  9%  3%
[libx264 @ 0x4631120] i8 v,h,dc,ddl,ddr,vr,hd,vl,hu: 14% 25% 42%  2%  3%  2%  5%  2%  4%
[libx264 @ 0x4631120] i4 v,h,dc,ddl,ddr,vr,hd,vl,hu: 23% 31% 12%  6%  6%  6%  8%  4%  5%
[libx264 @ 0x4631120] i8c dc,h,v,p: 85%  8%  7%  0%
[libx264 @ 0x4631120] Weighted P-Frames: Y:0.5% UV:0.0%
[libx264 @ 0x4631120] kb/s:2059.26
